<svg xmlns="http://www.w3.org/2000/svg" width="15.97" height="16"><path d="M12.63 9.9a1.573 1.573 0 00-1.14-.52 1.633 1.633 0 00-1.16.52l-1.06 1.06c-.09-.04-.18-.09-.26-.13-.12-.06-.24-.12-.34-.18a11.673 11.673 0 01-2.78-2.53 7.445 7.445 0 01-.91-1.44c.28-.26.54-.52.79-.77a3.833 3.833 0 01.28-.29 1.552 1.552 0 000-2.34l-.92-.92c-.11-.11-.22-.21-.32-.32-.2-.21-.41-.43-.63-.63a1.625 1.625 0 00-1.13-.5 1.689 1.689 0 00-1.15.5l-.01.01L.74 2.58a2.482 2.482 0 00-.73 1.57 5.971 5.971 0 00.43 2.5 14.493 14.493 0 002.59 4.31 15.988 15.988 0 005.29 4.15 8.262 8.262 0 002.97.87 1.477 1.477 0 00.21.01 2.536 2.536 0 001.95-.84l.01-.01a5.743 5.743 0 01.6-.61c.14-.14.29-.29.43-.44a1.66 1.66 0 00.51-1.17 1.633 1.633 0 00-.52-1.16zm1.21 3.56c-.13.14-.27.27-.41.41a7.014 7.014 0 00-.65.68 1.662 1.662 0 01-1.27.53h-.16a7.329 7.329 0 01-2.63-.79 15.1 15.1 0 01-4.99-3.91A13.7 13.7 0 011.3 6.34a4.938 4.938 0 01-.38-2.12 1.591 1.591 0 01.47-1l1.15-1.15a.753.753 0 01.51-.24.716.716 0 01.5.23c0 .01 0 .01.01.01.2.2.4.39.6.61.11.11.22.21.33.33l.92.92a.636.636 0 010 1.04l-.29.29c-.29.3-.56.57-.85.83l-.02.02a.678.678 0 00-.17.76.037.037 0 00.01.03 7.18 7.18 0 001.09 1.78v.01a12.446 12.446 0 003 2.72c.14.09.28.16.41.23a3.508 3.508 0 01.34.18.076.076 0 00.04.02.684.684 0 00.33.09.737.737 0 00.52-.24l1.15-1.15a.8.8 0 01.51-.25.72.72 0 01.49.24c0 .01 0 .01.01.01l1.86 1.86a.678.678 0 010 1.06zM8.63 3.8A4.2 4.2 0 0110.96 5a4.343 4.343 0 011.21 2.34.451.451 0 00.45.37h.08a.456.456 0 00.37-.53A5.243 5.243 0 008.79 2.9a.461.461 0 00-.53.37.456.456 0 00.37.53zm7.34 3.25A8.637 8.637 0 008.92 0a.451.451 0 10-.15.89 7.75 7.75 0 016.3 6.31.451.451 0 00.45.37h.07a.459.459 0 00.38-.52z" fill="#00aff0" fill-rule="evenodd"/></svg>