<svg id="Layer_1" data-name="Layer 1" xmlns="http://www.w3.org/2000/svg" viewBox="0 0 1733.12 463.06"><defs><style>.cls-1{fill:#00c3ef;}.cls-2{fill:#fff;}</style></defs><title>Copado Logo_Blue</title><path d="M687.3,414.72c30.41,0,50.22,9.77,70,24.55L739.47,472.2c-14.23-10.89-29.85-19-51.89-19C648,453.22,624,480.57,624,515.44s24,62.22,63.62,62.22c22,0,37.66-8.09,51.89-19l17.86,32.92c-19.81,14.79-39.62,24.55-70,24.55-66.13,0-107.14-46.31-107.14-100.72S621.17,414.72,687.3,414.72Z" transform="translate(-49.87 -283.19)"/><path d="M874.52,414.72c55.8,0,101.28,45.2,101.28,100.72S930.32,616.16,874.52,616.16C818.44,616.16,773,571,773,515.44S818.44,414.72,874.52,414.72Zm0,161.82c32.09,0,58.59-25.39,58.59-61.1s-26.5-61.1-58.59-61.1c-32.36,0-58.87,25.39-58.87,61.1S842.16,576.54,874.52,576.54Z" transform="translate(-49.87 -283.19)"/><path d="M1012.64,613.09V417.79h85.65c40.46,0,62.78,29.58,62.78,63.89s-22.6,62.5-62.78,62.5h-42.41v68.91Zm80.07-103c15.35,0,24.83-12,24.83-28.74,0-17.3-9.48-29.29-24.83-29.29h-36.83v58Z" transform="translate(-49.87 -283.19)"/><path d="M1157.45,613.09l75.33-195.3h42.13l76.45,195.3h-45.2l-14-36.55v.56h-76.72v-.56l-13.4,36.55Zm69.75-71.42h52.74l-26-78.12Z" transform="translate(-49.87 -283.19)"/><path d="M1451.53,613.09h-73.1V417.79h73.1c63.89,0,103.79,43.8,103.79,97.65S1515.42,613.09,1451.53,613.09Zm0-161h-29.85V578.77h29.85c37.11,0,60.26-28.45,60.26-63.33S1488.64,452.11,1451.53,452.11Z" transform="translate(-49.87 -283.19)"/><path d="M1681.72,414.72c55.8,0,101.28,45.2,101.28,100.72s-45.48,100.72-101.28,100.72c-56.08,0-101.56-45.2-101.56-100.72S1625.64,414.72,1681.72,414.72Zm0,161.82c32.08,0,58.59-25.39,58.59-61.1s-26.51-61.1-58.59-61.1c-32.37,0-58.87,25.39-58.87,61.1S1649.35,576.54,1681.72,576.54Z" transform="translate(-49.87 -283.19)"/><circle class="cls-1" cx="231.53" cy="231.53" r="231.53"/><path class="cls-2" d="M370.53,426.33a89.15,89.15,0,0,0-67.79,31.14v-.06l-.26.33c-2,2.29-3.8,4.67-5.51,7.14L277.74,489.8h0l-41.66,54h0l-4.61,6-2.84,3.69h0a50.53,50.53,0,0,1-36.1,14.9c-28.4,0-51.66-22.28-51.66-53.62s23.26-53.62,51.66-53.62a50.47,50.47,0,0,1,44.21,25.66l24.37-28.1a88.82,88.82,0,0,0-68.58-32.33c-49.21,0-89.12,39.67-89.12,88.39s39.91,88.39,89.12,88.39a88.57,88.57,0,0,0,59.45-23l74.94-94.89,0,.16a50.67,50.67,0,0,1,43.66-24.33c28.16,0,51.42,22.28,51.42,53.62s-23.26,53.62-51.42,53.62c-28.41,0-51.67-22.28-51.67-53.62l-29.45,36.33a89.1,89.1,0,0,0,81.12,52.06c49,0,88.88-39.67,88.88-88.39S419.5,426.33,370.53,426.33Z" transform="translate(-49.87 -283.19)"/><circle class="cls-2" cx="320.53" cy="233.64" r="14.66"/></svg>