<svg xmlns="http://www.w3.org/2000/svg" xmlns:xlink="http://www.w3.org/1999/xlink" width="120" height="23.789" viewBox="0 0 120 23.789">
  <defs>
    <clipPath id="clip-path">
      <rect id="長方形_23282" data-name="長方形 23282" width="120" height="23.789" fill="none"/>
    </clipPath>
  </defs>
  <g id="logo" transform="translate(60 11.894)">
    <g id="グループ_9224" data-name="グループ 9224" transform="translate(-60 -11.894)" clip-path="url(#clip-path)">
      <path id="パス_69802" data-name="パス 69802" d="M87.638,17.994H76.752c-1.74,0-2.37-.407-2.073-2a9.4,9.4,0,0,1,.518-1.851L79.714.889C79.9.259,79.751,0,79.344,0h-3.48c-.444,0-.778.3-.963.889L70.124,14.773a18.773,18.773,0,0,0-.889,3.3c-.7,4.073.963,5.665,5.406,5.665h11c.518,0,.778-.3,1-.889l1.407-3.962c.185-.555.037-.889-.407-.889" transform="translate(-43.503 0)" fill="#22304f"/>
      <path id="パス_69803" data-name="パス 69803" d="M152.284,0H140.472c-5.517,0-8.4,2.444-10.626,8.96s-2.666,8.109-2.814,9.071c-.7,4.073.926,5.7,5.369,5.7h11.811c.518,0,.778-.3,1-.889l1.3-3.777c.222-.629.037-.889-.407-.889H134.326c-1.74,0-2.37-.407-2.073-2a10.4,10.4,0,0,1,.555-2h14.514c.444,0,.778-.3.963-.889l1.074-3.11c.222-.629.111-.889-.407-.889H134.474c1-2.962,1.888-3.74,4.147-3.74h11.737c.444,0,.778-.3.963-.889l1.3-3.777c.222-.629.111-.889-.37-.889" transform="translate(-79.899 0)" fill="#22304f"/>
      <path id="パス_69804" data-name="パス 69804" d="M214.317,0H202.173c-5.517,0-8.4,2.444-10.626,8.96s-2.666,8.109-2.814,9.071c-.7,4.073.926,5.7,5.406,5.7h12.107c.444,0,.778-.3.963-.889l1.37-3.962c.185-.555.111-.889-.407-.889H196.211c-1.74,0-2.37-.407-2.073-2a55.324,55.324,0,0,1,2.073-6.479c1-3.073,1.888-3.814,4.221-3.814h11.922c.444,0,.778-.3.963-.889L214.65.852c.222-.555.111-.852-.37-.852" transform="translate(-118.754)" fill="#22304f"/>
      <path id="パス_69805" data-name="パス 69805" d="M283.118,0H262.162c-.444,0-.778.3-.963.889L259.866,4.85c-.185.555-.037.889.37.889h8.035l-5.85,17.143c-.185.555-.037.889.407.889h3.48c.444,0,.778-.3.963-.889l5.813-17.143h8.035c.518,0,.778-.3,1-.889L283.451.889c.185-.629.037-.889-.407-.889" transform="translate(-163.599 0)" fill="#22304f"/>
      <path id="パス_69806" data-name="パス 69806" d="M23.326,26.1l-.407,1.222c-.741,2.185-2.481,3.666-4.258,3.666H0l.592-1.74A4.313,4.313,0,0,1,4.258,26.1Z" transform="translate(0 -16.436)" fill="#3a82f3"/>
      <path id="パス_69807" data-name="パス 69807" d="M3.367,47.657c-.185.555-.037.889.407.889h3.48c.444,0,.778-.3.963-.889L11.032,39.4H6.181Z" transform="translate(-2.072 -24.812)" fill="#22304f"/>
      <path id="パス_69808" data-name="パス 69808" d="M39.934,0H28.16C23.2,0,20.347,2,18.2,7.146h5a3.176,3.176,0,0,1,3.184-1.555H38.046q.666,0,1-.889L40.3.889c.222-.629.074-.889-.37-.889" transform="translate(-11.461 0)" fill="#22304f"/>
    </g>
  </g>
</svg>
