<svg xmlns="http://www.w3.org/2000/svg" viewBox="0 0 124.9 13.46"><title>logo</title><path d="M12.86.13c-.23-.3-2.92,0-2.92,0A4.55,4.55,0,0,1,12,.39c-3,.8-8.22,3.55-6.4,11.77.93-.08,2.17,0,2.45-1.12.19-.76-1.21-2.66-.8-4.57a9.72,9.72,0,0,1,4.8-6c.24.18.19.48-.09.94C12,1.37,13.17.5,12.86.13Z" style="fill:#d71718"/><path d="M11,.34A7.62,7.62,0,0,0,7.67.77c-2.54.77-5.35,2.55-6,5.7-.51,2.36.27,4.38,1.81,5.25C2.85,9,2.08,1.8,11,.34Z" style="fill:#d71718"/><path d="M12.12,8.28v0A4.22,4.22,0,0,0,12,6.88h0a.07.07,0,0,0,0,0s0,0,0,0c-.28-1-1.08-2.5-1.14-3.23A4,4,0,0,1,12,1l0,0,.08-.08S9.74,2.33,9.43,4s.49,2.43.6,3c.53,2.79-4,1.55-6.78-.19A9.74,9.74,0,0,1,0,4a2.73,2.73,0,0,0,.17.32,13.43,13.43,0,0,0,2,2.7l.15.15,0,0A12.46,12.46,0,0,0,4,8.61c1.55,1.1,7.9,3.38,8.15-.28A.07.07,0,0,1,12.12,8.28Z" style="fill:#e68313"/><path d="M31.19,3.48v7.38H28.86V3.48Z" style="fill:#191a1a"/><path d="M32.4,6.31a3.15,3.15,0,0,1,.29-1.42A2.2,2.2,0,0,1,33.43,4a3,3,0,0,1,1-.42,4.72,4.72,0,0,1,1.06-.12H39v7.31a4.6,4.6,0,0,1-.23,1.65,1.38,1.38,0,0,1-.83.79,5.29,5.29,0,0,1-1.77.23h-2.6l-.6-2H36a1.1,1.1,0,0,0,.56-.11.61.61,0,0,0,.2-.51A4.05,4.05,0,0,1,35,10.48a4.12,4.12,0,0,1-1.37-1A4.63,4.63,0,0,1,32.72,8,4.62,4.62,0,0,1,32.4,6.31Zm4.31-.83H36a1.48,1.48,0,0,0-.85.22,1,1,0,0,0-.29.81,2.63,2.63,0,0,0,.87,1.91,2,2,0,0,0,1,.46Z" style="fill:#191a1a"/><path d="M40.35,10.86V.88h2.36v2.6H44a3.7,3.7,0,0,1,1.49.25,1.62,1.62,0,0,1,.84.83,3.82,3.82,0,0,1,.28,1.58l0,4.72H44.28V6.67a4.2,4.2,0,0,0-.05-.75A.5.5,0,0,0,44,5.59a1.68,1.68,0,0,0-.71-.11h-.54v5.38Z" style="fill:#191a1a"/><path d="M53.52,6.31a3.92,3.92,0,0,1,.22-1.42A2.2,2.2,0,0,1,54.39,4a2.67,2.67,0,0,1,1.06-.5,6.15,6.15,0,0,1,1.45-.15,9,9,0,0,1,1.7.14A2,2,0,0,1,59.72,4a1.83,1.83,0,0,1,.43,1.32,2.65,2.65,0,0,1-.45,1.51,4.58,4.58,0,0,1-1,1.08,10,10,0,0,1-1.2.79,4.85,4.85,0,0,0,1.38.14h.93l-.57,2H57.8a3.8,3.8,0,0,1-1.61-.35,4.27,4.27,0,0,1-1.38-1,4.61,4.61,0,0,1-1.29-3.23Zm2.55,1a5.58,5.58,0,0,0,1.09-.69,1.27,1.27,0,0,0,.61-.93c0-.24-.24-.36-.73-.36a1.24,1.24,0,0,0-.8.26,1,1,0,0,0-.32.84A3.72,3.72,0,0,0,56.07,7.29Z" style="fill:#191a1a"/><path d="M60.59,6.31A3,3,0,0,1,61,4.61a2.37,2.37,0,0,1,1.13-.88,4.24,4.24,0,0,1,1.49-.25h1.49l.56,2H64.16a2,2,0,0,0-.59.07.71.71,0,0,0-.41.28,1.15,1.15,0,0,0-.17.68,2.58,2.58,0,0,0,.26,1.07,2.54,2.54,0,0,0,.72.93,1.62,1.62,0,0,0,1,.37h.83l-.6,2h-.38a3.87,3.87,0,0,1-2.16-.64,4.72,4.72,0,0,1-2.12-3.91Z" style="fill:#191a1a"/><path d="M72.46,8.68h2.3a3.08,3.08,0,0,0,.72-.06.25.25,0,0,0,.23-.26.45.45,0,0,0-.07-.25,1.1,1.1,0,0,0-.21-.27,1.3,1.3,0,0,0-.15-.16l-1.7-1.94c-.26-.28-.46-.53-.62-.74a2.94,2.94,0,0,1-.41-.72,2.2,2.2,0,0,1-.18-.88,2.3,2.3,0,0,1,.29-1.14,2.06,2.06,0,0,1,.89-.81A3.16,3.16,0,0,1,75,1.16h2.74l.59,2.19H76.17a2.89,2.89,0,0,0-.7.06.25.25,0,0,0-.22.27.55.55,0,0,0,.06.26c0,.07.17.21.35.41l1.78,2a7.09,7.09,0,0,1,.87,1.11,2.34,2.34,0,0,1,.32,1.22,2.39,2.39,0,0,1-.21,1,1.86,1.86,0,0,1-.54.7,2.48,2.48,0,0,1-.83.41,3.75,3.75,0,0,1-1,.13H73Z" style="fill:#191a1a"/><path d="M86.46,8.68h2.3a3.08,3.08,0,0,0,.72-.06.25.25,0,0,0,.23-.26.55.55,0,0,0-.07-.25,2,2,0,0,0-.21-.27l-.15-.16L87.57,5.74A9.32,9.32,0,0,1,87,5a3.33,3.33,0,0,1-.42-.72,2.2,2.2,0,0,1-.18-.88,2.21,2.21,0,0,1,.3-1.14,2,2,0,0,1,.89-.81A3.13,3.13,0,0,1,89,1.16h2.73l.6,2.19H90.17a3,3,0,0,0-.71.06.26.26,0,0,0-.22.27.56.56,0,0,0,.07.26,4.09,4.09,0,0,0,.35.41l1.78,2a7,7,0,0,1,.86,1.11,2.25,2.25,0,0,1,.32,1.22,2.24,2.24,0,0,1-.2,1,2,2,0,0,1-.54.7,2.58,2.58,0,0,1-.83.41,3.82,3.82,0,0,1-1,.13H87Z" style="fill:#191a1a"/><path d="M100.09,1.16l.59,2.19H98v7.51H95.43V3.35h-2.7l.59-2.19Z" style="fill:#191a1a"/><path d="M53.41,1.16,54,3.35H51.21v7.51H48.85V3.35h-2.8l.59-2.19Z" style="fill:#191a1a"/><path d="M107.06,1.16l.58,2.19h-3.92V4.79h3.57L106.69,7h-3V8.68h4.18l-.58,2.18H101.2V1.16Z" style="fill:#191a1a"/><path d="M117.82,1.16v9.7h-2.55V5h0L113.3,7.62,111.38,5h0v5.86H108.8V1.16h2.41L113.3,4l2.11-2.85Z" style="fill:#191a1a"/><path d="M118.73,8.68H121a3.08,3.08,0,0,0,.72-.06.24.24,0,0,0,.23-.26.45.45,0,0,0-.07-.25,1.1,1.1,0,0,0-.21-.27,1.3,1.3,0,0,0-.15-.16l-1.7-1.94c-.25-.28-.46-.53-.62-.74a2.94,2.94,0,0,1-.41-.72,2.2,2.2,0,0,1-.18-.88,2.21,2.21,0,0,1,.3-1.14,2,2,0,0,1,.88-.81,3.19,3.19,0,0,1,1.44-.29H124l.59,2.19h-2.15a2.94,2.94,0,0,0-.7.06.25.25,0,0,0-.22.27.46.46,0,0,0,.07.26,3.55,3.55,0,0,0,.34.41l1.78,2a6.54,6.54,0,0,1,.87,1.11,2.34,2.34,0,0,1,.32,1.22,2.39,2.39,0,0,1-.2,1,1.89,1.89,0,0,1-.55.7,2.53,2.53,0,0,1-.82.41,3.87,3.87,0,0,1-1,.13h-3Z" style="fill:#191a1a"/><path d="M31.32,1.65A1.3,1.3,0,1,1,30,.35,1.29,1.29,0,0,1,31.32,1.65Z" style="fill:#d71718"/><path d="M24.41,1.16V5.88H21.88V1.16H19.23V5.88H17.57c.33.16,1.06.53,1.67.81h0v4.17h2.65V7.6a18,18,0,0,0,2.39.47h.14v2.78h2.65V1.16Z" style="fill:#191a1a"/><polygon points="81.12 10.86 83.68 10.86 83.68 7.05 86.58 1.11 83.65 1.11 82.41 4.04 81.16 1.11 78.22 1.11 81.12 7.05 81.12 10.86" style="fill:#191a1a"/></svg>